<svg id="Layer_1" data-name="Layer 1" width="186" height="66" xmlns="http://www.w3.org/2000/svg" xmlns:xlink="http://www.w3.org/1999/xlink" viewBox="0 0 185.82 65.98"><defs><style>.cls-1{fill:url(#linear-gradient);}</style><linearGradient id="linear-gradient" x1="0" x2="0" y1="0" y2="65.98" gradientUnits="userSpaceOnUse"><stop offset="0" stop-color="#2846ff"/><stop offset="1" stop-color="#1e28aa"/></linearGradient></defs><title>_HIVO LOGO</title><path class="cls-1" d="M169.21,64.53a39.07,39.07,0,0,1-21.09,0,22.67,22.67,0,0,1-8.46-5q-8.15-7.25-8.15-26.71,0-21.9,11.22-29Q148.81,0,158.66,0q15.48,0,21.91,9.77,5.25,8,5.25,23.08,0,19.47-8.15,26.71A22.75,22.75,0,0,1,169.21,64.53ZM151.47,13.94q-2.49,1.44-3.85,5.93T146.26,33q0,8.64,1.41,13.17c.93,3,2.23,5,3.89,5.93a14.73,14.73,0,0,0,7.1,1.4A14,14,0,0,0,165.72,52q5.34-3.07,5.34-19,0-16.11-5.16-19.1a14.71,14.71,0,0,0-7.24-1.45A14.45,14.45,0,0,0,151.47,13.94Z"/><path class="cls-1" d="M126.18,1.18H112s.27,27.06-2.88,34.25l-7,16.07h-.55l-7-16.07C91.33,28.24,91.6,1.18,91.6,1.18H77.39s-.26,27.15,2.88,34.34S93,64.81,93,64.81h17.56s9.59-22.11,12.74-29.29S126.18,1.18,126.18,1.18Z"/><path class="cls-1" d="M0,64.8V1.18H14.21l-.27,25.25h21L34.67,1.18H48.88V64.8H34.67l.27-26.24h-21l.27,26.24Z"/><path class="cls-1" d="M70,29.51l.27,35.29H56l.36-29.32L56,1.18h14.3Z"/></svg>